<?xml version="1.0" encoding="UTF-8" standalone="no"?>
<!DOCTYPE svg PUBLIC "-//W3C//DTD SVG 1.1//EN"
 "http://www.w3.org/Graphics/SVG/1.1/DTD/svg11.dtd">
<!-- Generated by graphviz version 7.0.2 (20221119.0110)
 -->
<!-- Title: dependency&#45;cruiser output Pages: 1 -->
<svg width="287pt" height="484pt"
 viewBox="0.00 0.00 287.00 484.00" xmlns="http://www.w3.org/2000/svg" xmlns:xlink="http://www.w3.org/1999/xlink">
<g id="graph0" class="graph" transform="scale(1 1) rotate(0) translate(4 480)">
<title>dependency&#45;cruiser output</title>
<polygon fill="white" stroke="none" points="-4,4 -4,-480 283,-480 283,4 -4,4"/>
<g id="clust1" class="cluster">
<title>cluster_db</title>
<path fill="#ffffff" stroke="black" stroke-width="2" d="M52,-68C52,-68 259,-68 259,-68 265,-68 271,-74 271,-80 271,-80 271,-108 271,-108 271,-114 265,-120 259,-120 259,-120 52,-120 52,-120 46,-120 40,-114 40,-108 40,-108 40,-80 40,-80 40,-74 46,-68 52,-68"/>
<text text-anchor="middle" x="155.5" y="-108.8" font-family="Helvetica,sans-Serif" font-weight="bold" font-size="9.00">db</text>
</g>
<g id="clust2" class="cluster">
<title>cluster_fake&#45;indexeddb</title>
<path fill="#ffffff" stroke="black" stroke-width="2" d="M177.5,-8C177.5,-8 236.5,-8 236.5,-8 242.5,-8 248.5,-14 248.5,-20 248.5,-20 248.5,-48 248.5,-48 248.5,-54 242.5,-60 236.5,-60 236.5,-60 177.5,-60 177.5,-60 171.5,-60 165.5,-54 165.5,-48 165.5,-48 165.5,-20 165.5,-20 165.5,-14 171.5,-8 177.5,-8"/>
<text text-anchor="middle" x="207" y="-48.8" font-family="Helvetica,sans-Serif" font-weight="bold" font-size="9.00">fake&#45;indexeddb</text>
</g>
<g id="clust3" class="cluster">
<title>cluster_front&#45;end</title>
<path fill="#ffffff" stroke="black" stroke-width="2" d="M20,-128C20,-128 130,-128 130,-128 136,-128 142,-134 142,-140 142,-140 142,-408 142,-408 142,-414 136,-420 130,-420 130,-420 20,-420 20,-420 14,-420 8,-414 8,-408 8,-408 8,-140 8,-140 8,-134 14,-128 20,-128"/>
<text text-anchor="middle" x="75" y="-408.8" font-family="Helvetica,sans-Serif" font-weight="bold" font-size="9.00">front&#45;end</text>
</g>
<!-- README.md -->
<g id="node1" class="node">
<title>README.md</title>
<g id="a_node1"><a xlink:href="README.md" xlink:title="README.md">
<path fill="#ccffcc" stroke="black" d="M104.5,-60C104.5,-60 45.5,-60 45.5,-60 42.5,-60 39.5,-57 39.5,-54 39.5,-54 39.5,-48 39.5,-48 39.5,-45 42.5,-42 45.5,-42 45.5,-42 104.5,-42 104.5,-42 107.5,-42 110.5,-45 110.5,-48 110.5,-48 110.5,-54 110.5,-54 110.5,-57 107.5,-60 104.5,-60"/>
<text text-anchor="middle" x="75" y="-48.8" font-family="Helvetica,sans-Serif" font-size="9.00">README.md</text>
</a>
</g>
</g>
<!-- db/content&#45;management.js -->
<g id="node2" class="node">
<title>db/content&#45;management.js</title>
<g id="a_node2"><a xlink:href="db/content-management.js" xlink:title="content&#45;management.js">
<path fill="#ffffcc" stroke="black" d="M257,-94C257,-94 156,-94 156,-94 153,-94 150,-91 150,-88 150,-88 150,-82 150,-82 150,-79 153,-76 156,-76 156,-76 257,-76 257,-76 260,-76 263,-79 263,-82 263,-82 263,-88 263,-88 263,-91 260,-94 257,-94"/>
<text text-anchor="start" x="158" y="-82.8" font-family="Helvetica,sans-Serif" font-size="9.00">content&#45;management.js</text>
</a>
</g>
</g>
<!-- db/db.test.js -->
<g id="node3" class="node">
<title>db/db.test.js</title>
<g id="a_node3"><a xlink:href="db/db.test.js" xlink:title="db.test.js">
<path fill="#ffffcc" stroke="black" d="M96,-94C96,-94 54,-94 54,-94 51,-94 48,-91 48,-88 48,-88 48,-82 48,-82 48,-79 51,-76 54,-76 54,-76 96,-76 96,-76 99,-76 102,-79 102,-82 102,-82 102,-88 102,-88 102,-91 99,-94 96,-94"/>
<text text-anchor="start" x="56.5" y="-82.8" font-family="Helvetica,sans-Serif" font-size="9.00">db.test.js</text>
</a>
</g>
</g>
<!-- db/db.test.js&#45;&gt;db/content&#45;management.js -->
<g id="edge1" class="edge">
<title>db/db.test.js&#45;&gt;db/content&#45;management.js</title>
<path fill="none" stroke="#000000" stroke-width="2" stroke-opacity="0.200000" d="M102.21,-85C113.42,-85 127.06,-85 140.71,-85"/>
<polygon fill="#000000" fill-opacity="0.200000" stroke="#000000" stroke-width="2" stroke-opacity="0.200000" points="140.62,-87.1 146.62,-85 140.62,-82.9 140.62,-87.1"/>
</g>
<!-- fake&#45;indexeddb/auto -->
<g id="node4" class="node">
<title>fake&#45;indexeddb/auto</title>
<g id="a_node4"><a xlink:title="auto">
<path fill="#ffffcc" stroke="red" d="M227.5,-34C227.5,-34 185.5,-34 185.5,-34 182.5,-34 179.5,-31 179.5,-28 179.5,-28 179.5,-22 179.5,-22 179.5,-19 182.5,-16 185.5,-16 185.5,-16 227.5,-16 227.5,-16 230.5,-16 233.5,-19 233.5,-22 233.5,-22 233.5,-28 233.5,-28 233.5,-31 230.5,-34 227.5,-34"/>
<text text-anchor="start" x="197" y="-22.8" font-family="Helvetica,sans-Serif" font-size="9.00" fill="red">auto</text>
</a>
</g>
</g>
<!-- db/db.test.js&#45;&gt;fake&#45;indexeddb/auto -->
<g id="edge2" class="edge">
<title>db/db.test.js&#45;&gt;fake&#45;indexeddb/auto</title>
<path fill="none" stroke="#000000" stroke-width="2" stroke-opacity="0.200000" d="M102.33,-79.31C114.68,-76.16 129.41,-71.73 142,-66 157.83,-58.8 174.28,-48.07 186.47,-39.39"/>
<polygon fill="#000000" fill-opacity="0.200000" stroke="#000000" stroke-width="2" stroke-opacity="0.200000" points="187.41,-41.31 191.02,-36.09 184.94,-37.92 187.41,-41.31"/>
</g>
<!-- front&#45;end/abstract&#45;observer.js -->
<g id="node5" class="node">
<title>front&#45;end/abstract&#45;observer.js</title>
<g id="a_node5"><a xlink:href="front-end/abstract-observer.js" xlink:title="abstract&#45;observer.js">
<path fill="#ccffcc" stroke="black" d="M117.5,-394C117.5,-394 32.5,-394 32.5,-394 29.5,-394 26.5,-391 26.5,-388 26.5,-388 26.5,-382 26.5,-382 26.5,-379 29.5,-376 32.5,-376 32.5,-376 117.5,-376 117.5,-376 120.5,-376 123.5,-379 123.5,-382 123.5,-382 123.5,-388 123.5,-388 123.5,-391 120.5,-394 117.5,-394"/>
<text text-anchor="start" x="34.5" y="-382.8" font-family="Helvetica,sans-Serif" font-size="9.00">abstract&#45;observer.js</text>
</a>
</g>
</g>
<!-- front&#45;end/abstract&#45;user&#45;menu.js -->
<g id="node6" class="node">
<title>front&#45;end/abstract&#45;user&#45;menu.js</title>
<g id="a_node6"><a xlink:href="front-end/abstract-user-menu.js" xlink:title="abstract&#45;user&#45;menu.js">
<path fill="#ccffcc" stroke="black" d="M121.5,-364C121.5,-364 28.5,-364 28.5,-364 25.5,-364 22.5,-361 22.5,-358 22.5,-358 22.5,-352 22.5,-352 22.5,-349 25.5,-346 28.5,-346 28.5,-346 121.5,-346 121.5,-346 124.5,-346 127.5,-349 127.5,-352 127.5,-352 127.5,-358 127.5,-358 127.5,-361 124.5,-364 121.5,-364"/>
<text text-anchor="start" x="30.5" y="-352.8" font-family="Helvetica,sans-Serif" font-size="9.00">abstract&#45;user&#45;menu.js</text>
</a>
</g>
</g>
<!-- front&#45;end/background&#45;animation.js -->
<g id="node7" class="node">
<title>front&#45;end/background&#45;animation.js</title>
<g id="a_node7"><a xlink:href="front-end/background-animation.js" xlink:title="background&#45;animation.js">
<path fill="#ccffcc" stroke="black" d="M128,-334C128,-334 22,-334 22,-334 19,-334 16,-331 16,-328 16,-328 16,-322 16,-322 16,-319 19,-316 22,-316 22,-316 128,-316 128,-316 131,-316 134,-319 134,-322 134,-322 134,-328 134,-328 134,-331 131,-334 128,-334"/>
<text text-anchor="start" x="24" y="-322.8" font-family="Helvetica,sans-Serif" font-size="9.00">background&#45;animation.js</text>
</a>
</g>
</g>
<!-- front&#45;end/note&#45;app.js -->
<g id="node8" class="node">
<title>front&#45;end/note&#45;app.js</title>
<g id="a_node8"><a xlink:href="front-end/note-app.js" xlink:title="note&#45;app.js">
<path fill="#ccffcc" stroke="black" d="M100,-304C100,-304 50,-304 50,-304 47,-304 44,-301 44,-298 44,-298 44,-292 44,-292 44,-289 47,-286 50,-286 50,-286 100,-286 100,-286 103,-286 106,-289 106,-292 106,-292 106,-298 106,-298 106,-301 103,-304 100,-304"/>
<text text-anchor="start" x="52" y="-292.8" font-family="Helvetica,sans-Serif" font-size="9.00">note&#45;app.js</text>
</a>
</g>
</g>
<!-- front&#45;end/note.js -->
<g id="node9" class="node">
<title>front&#45;end/note.js</title>
<g id="a_node9"><a xlink:href="front-end/note.js" xlink:title="note.js">
<path fill="#ccffcc" stroke="black" d="M96,-274C96,-274 54,-274 54,-274 51,-274 48,-271 48,-268 48,-268 48,-262 48,-262 48,-259 51,-256 54,-256 54,-256 96,-256 96,-256 99,-256 102,-259 102,-262 102,-262 102,-268 102,-268 102,-271 99,-274 96,-274"/>
<text text-anchor="start" x="61" y="-262.8" font-family="Helvetica,sans-Serif" font-size="9.00">note.js</text>
</a>
</g>
</g>
<!-- front&#45;end/text&#45;editor.js -->
<g id="node10" class="node">
<title>front&#45;end/text&#45;editor.js</title>
<g id="a_node10"><a xlink:href="front-end/text-editor.js" xlink:title="text&#45;editor.js">
<path fill="#ccffcc" stroke="black" d="M102,-244C102,-244 48,-244 48,-244 45,-244 42,-241 42,-238 42,-238 42,-232 42,-232 42,-229 45,-226 48,-226 48,-226 102,-226 102,-226 105,-226 108,-229 108,-232 108,-232 108,-238 108,-238 108,-241 105,-244 102,-244"/>
<text text-anchor="start" x="50" y="-232.8" font-family="Helvetica,sans-Serif" font-size="9.00">text&#45;editor.js</text>
</a>
</g>
</g>
<!-- front&#45;end/topic&#45;factory.js -->
<g id="node11" class="node">
<title>front&#45;end/topic&#45;factory.js</title>
<g id="a_node11"><a xlink:href="front-end/topic-factory.js" xlink:title="topic&#45;factory.js">
<path fill="#ccffcc" stroke="black" d="M106.5,-214C106.5,-214 43.5,-214 43.5,-214 40.5,-214 37.5,-211 37.5,-208 37.5,-208 37.5,-202 37.5,-202 37.5,-199 40.5,-196 43.5,-196 43.5,-196 106.5,-196 106.5,-196 109.5,-196 112.5,-199 112.5,-202 112.5,-202 112.5,-208 112.5,-208 112.5,-211 109.5,-214 106.5,-214"/>
<text text-anchor="start" x="45.5" y="-202.8" font-family="Helvetica,sans-Serif" font-size="9.00">topic&#45;factory.js</text>
</a>
</g>
</g>
<!-- front&#45;end/tweet&#45;factory.js -->
<g id="node12" class="node">
<title>front&#45;end/tweet&#45;factory.js</title>
<g id="a_node12"><a xlink:href="front-end/tweet-factory.js" xlink:title="tweet&#45;factory.js">
<path fill="#ccffcc" stroke="black" d="M107.5,-184C107.5,-184 42.5,-184 42.5,-184 39.5,-184 36.5,-181 36.5,-178 36.5,-178 36.5,-172 36.5,-172 36.5,-169 39.5,-166 42.5,-166 42.5,-166 107.5,-166 107.5,-166 110.5,-166 113.5,-169 113.5,-172 113.5,-172 113.5,-178 113.5,-178 113.5,-181 110.5,-184 107.5,-184"/>
<text text-anchor="start" x="44.5" y="-172.8" font-family="Helvetica,sans-Serif" font-size="9.00">tweet&#45;factory.js</text>
</a>
</g>
</g>
<!-- front&#45;end/user.js -->
<g id="node13" class="node">
<title>front&#45;end/user.js</title>
<g id="a_node13"><a xlink:href="front-end/user.js" xlink:title="user.js">
<path fill="#ccffcc" stroke="black" d="M96,-154C96,-154 54,-154 54,-154 51,-154 48,-151 48,-148 48,-148 48,-142 48,-142 48,-139 51,-136 54,-136 54,-136 96,-136 96,-136 99,-136 102,-139 102,-142 102,-142 102,-148 102,-148 102,-151 99,-154 96,-154"/>
<text text-anchor="start" x="61" y="-142.8" font-family="Helvetica,sans-Serif" font-size="9.00">user.js</text>
</a>
</g>
</g>
<!-- index.html -->
<g id="node14" class="node">
<title>index.html</title>
<g id="a_node14"><a xlink:href="index.html" xlink:title="index.html">
<path fill="#ccffcc" stroke="black" d="M98.5,-446C98.5,-446 51.5,-446 51.5,-446 48.5,-446 45.5,-443 45.5,-440 45.5,-440 45.5,-434 45.5,-434 45.5,-431 48.5,-428 51.5,-428 51.5,-428 98.5,-428 98.5,-428 101.5,-428 104.5,-431 104.5,-434 104.5,-434 104.5,-440 104.5,-440 104.5,-443 101.5,-446 98.5,-446"/>
<text text-anchor="middle" x="75" y="-434.8" font-family="Helvetica,sans-Serif" font-size="9.00">index.html</text>
</a>
</g>
</g>
<!-- ✖ -->
<g id="node15" class="node">
<title>✖</title>
<g id="a_node15"><a xlink:title="✖">
<path fill="#ffffcc" stroke="red" d="M96,-476C96,-476 54,-476 54,-476 51,-476 48,-473 48,-470 48,-470 48,-464 48,-464 48,-461 51,-458 54,-458 54,-458 96,-458 96,-458 99,-458 102,-461 102,-464 102,-464 102,-470 102,-470 102,-473 99,-476 96,-476"/>
<text text-anchor="middle" x="75" y="-464.8" font-family="Helvetica,sans-Serif" font-size="9.00" fill="red">✖</text>
</a>
</g>
</g>
</g>
</svg>
