<?xml version="1.0" encoding="UTF-8" standalone="no"?>
<!DOCTYPE svg PUBLIC "-//W3C//DTD SVG 1.1//EN"
 "http://www.w3.org/Graphics/SVG/1.1/DTD/svg11.dtd">
<!-- Generated by graphviz version 7.0.2 (20221119.0110)
 -->
<!-- Title: dependency&#45;cruiser output Pages: 1 -->
<svg width="561pt" height="512pt"
 viewBox="0.00 0.00 560.50 512.00" xmlns="http://www.w3.org/2000/svg" xmlns:xlink="http://www.w3.org/1999/xlink">
<g id="graph0" class="graph" transform="scale(1 1) rotate(0) translate(4 508)">
<title>dependency&#45;cruiser output</title>
<polygon fill="white" stroke="none" points="-4,4 -4,-508 556.5,-508 556.5,4 -4,4"/>
<g id="clust1" class="cluster">
<title>cluster_dist</title>
<path fill="#ffffff" stroke="black" stroke-width="2" d="M28,-396C28,-396 74,-396 74,-396 80,-396 86,-402 86,-408 86,-408 86,-436 86,-436 86,-442 80,-448 74,-448 74,-448 28,-448 28,-448 22,-448 16,-442 16,-436 16,-436 16,-408 16,-408 16,-402 22,-396 28,-396"/>
<text text-anchor="middle" x="51" y="-436.8" font-family="Helvetica,sans-Serif" font-weight="bold" font-size="9.00">dist</text>
</g>
<g id="clust2" class="cluster">
<title>cluster_fake&#45;indexeddb</title>
<path fill="#ffffff" stroke="black" stroke-width="2" d="M258,-56C258,-56 317,-56 317,-56 323,-56 329,-62 329,-68 329,-68 329,-96 329,-96 329,-102 323,-108 317,-108 317,-108 258,-108 258,-108 252,-108 246,-102 246,-96 246,-96 246,-68 246,-68 246,-62 252,-56 258,-56"/>
<text text-anchor="middle" x="287.5" y="-96.8" font-family="Helvetica,sans-Serif" font-weight="bold" font-size="9.00">fake&#45;indexeddb</text>
</g>
<g id="clust3" class="cluster">
<title>cluster_src</title>
<path fill="#ffffff" stroke="black" stroke-width="2" d="M20,-116C20,-116 532.5,-116 532.5,-116 538.5,-116 544.5,-122 544.5,-128 544.5,-128 544.5,-376 544.5,-376 544.5,-382 538.5,-388 532.5,-388 532.5,-388 20,-388 20,-388 14,-388 8,-382 8,-376 8,-376 8,-128 8,-128 8,-122 14,-116 20,-116"/>
<text text-anchor="middle" x="276.25" y="-376.8" font-family="Helvetica,sans-Serif" font-weight="bold" font-size="9.00">src</text>
</g>
<g id="clust4" class="cluster">
<title>cluster_src/db</title>
<path fill="#ffffff" stroke="black" stroke-width="2" d="M140,-184C140,-184 339.5,-184 339.5,-184 345.5,-184 351.5,-190 351.5,-196 351.5,-196 351.5,-224 351.5,-224 351.5,-230 345.5,-236 339.5,-236 339.5,-236 140,-236 140,-236 134,-236 128,-230 128,-224 128,-224 128,-196 128,-196 128,-190 134,-184 140,-184"/>
<text text-anchor="middle" x="239.75" y="-224.8" font-family="Helvetica,sans-Serif" font-weight="bold" font-size="9.00">db</text>
</g>
<g id="clust5" class="cluster">
<title>cluster_src/front&#45;end</title>
<path fill="#ffffff" stroke="black" stroke-width="2" d="M28,-250C28,-250 452.5,-250 452.5,-250 458.5,-250 464.5,-256 464.5,-262 464.5,-262 464.5,-348 464.5,-348 464.5,-354 458.5,-360 452.5,-360 452.5,-360 28,-360 28,-360 22,-360 16,-354 16,-348 16,-348 16,-262 16,-262 16,-256 22,-250 28,-250"/>
<text text-anchor="middle" x="240.25" y="-348.8" font-family="Helvetica,sans-Serif" font-weight="bold" font-size="9.00">front&#45;end</text>
</g>
<g id="clust6" class="cluster">
<title>cluster_src/scss</title>
<path fill="#ffffff" stroke="black" stroke-width="2" d="M262.5,-124C262.5,-124 311.5,-124 311.5,-124 317.5,-124 323.5,-130 323.5,-136 323.5,-136 323.5,-164 323.5,-164 323.5,-170 317.5,-176 311.5,-176 311.5,-176 262.5,-176 262.5,-176 256.5,-176 250.5,-170 250.5,-164 250.5,-164 250.5,-136 250.5,-136 250.5,-130 256.5,-124 262.5,-124"/>
<text text-anchor="middle" x="287" y="-164.8" font-family="Helvetica,sans-Serif" font-weight="bold" font-size="9.00">scss</text>
</g>
<!-- README.md -->
<g id="node1" class="node">
<title>README.md</title>
<g id="a_node1"><a xlink:href="README.md" xlink:title="README.md">
<path fill="#ccffcc" stroke="black" d="M80.5,-108C80.5,-108 21.5,-108 21.5,-108 18.5,-108 15.5,-105 15.5,-102 15.5,-102 15.5,-96 15.5,-96 15.5,-93 18.5,-90 21.5,-90 21.5,-90 80.5,-90 80.5,-90 83.5,-90 86.5,-93 86.5,-96 86.5,-96 86.5,-102 86.5,-102 86.5,-105 83.5,-108 80.5,-108"/>
<text text-anchor="middle" x="51" y="-96.8" font-family="Helvetica,sans-Serif" font-size="9.00">README.md</text>
</a>
</g>
</g>
<!-- bootstrap -->
<g id="node2" class="node">
<title>bootstrap</title>
<g id="a_node2"><a xlink:title="bootstrap">
<path fill="#ffffcc" stroke="red" d="M308.5,-48C308.5,-48 265.5,-48 265.5,-48 262.5,-48 259.5,-45 259.5,-42 259.5,-42 259.5,-36 259.5,-36 259.5,-33 262.5,-30 265.5,-30 265.5,-30 308.5,-30 308.5,-30 311.5,-30 314.5,-33 314.5,-36 314.5,-36 314.5,-42 314.5,-42 314.5,-45 311.5,-48 308.5,-48"/>
<text text-anchor="middle" x="287" y="-36.8" font-family="Helvetica,sans-Serif" font-size="9.00" fill="red">bootstrap</text>
</a>
</g>
</g>
<!-- dist/bundle.js -->
<g id="node3" class="node">
<title>dist/bundle.js</title>
<g id="a_node3"><a xlink:href="dist/bundle.js" xlink:title="bundle.js">
<path fill="#ccffcc" stroke="black" d="M72,-422C72,-422 30,-422 30,-422 27,-422 24,-419 24,-416 24,-416 24,-410 24,-410 24,-407 27,-404 30,-404 30,-404 72,-404 72,-404 75,-404 78,-407 78,-410 78,-410 78,-416 78,-416 78,-419 75,-422 72,-422"/>
<text text-anchor="start" x="32" y="-410.8" font-family="Helvetica,sans-Serif" font-size="9.00">bundle.js</text>
</a>
</g>
</g>
<!-- dompurify -->
<g id="node4" class="node">
<title>dompurify</title>
<g id="a_node4"><a xlink:title="dompurify">
<path fill="#ffffcc" stroke="red" d="M309.5,-18C309.5,-18 264.5,-18 264.5,-18 261.5,-18 258.5,-15 258.5,-12 258.5,-12 258.5,-6 258.5,-6 258.5,-3 261.5,0 264.5,0 264.5,0 309.5,0 309.5,0 312.5,0 315.5,-3 315.5,-6 315.5,-6 315.5,-12 315.5,-12 315.5,-15 312.5,-18 309.5,-18"/>
<text text-anchor="middle" x="287" y="-6.8" font-family="Helvetica,sans-Serif" font-size="9.00" fill="red">dompurify</text>
</a>
</g>
</g>
<!-- fake&#45;indexeddb/auto -->
<g id="node5" class="node">
<title>fake&#45;indexeddb/auto</title>
<g id="a_node5"><a xlink:title="auto">
<path fill="#ffffcc" stroke="red" d="M308,-82C308,-82 266,-82 266,-82 263,-82 260,-79 260,-76 260,-76 260,-70 260,-70 260,-67 263,-64 266,-64 266,-64 308,-64 308,-64 311,-64 314,-67 314,-70 314,-70 314,-76 314,-76 314,-79 311,-82 308,-82"/>
<text text-anchor="start" x="277.5" y="-70.8" font-family="Helvetica,sans-Serif" font-size="9.00" fill="red">auto</text>
</a>
</g>
</g>
<!-- mini&#45;css&#45;extract&#45;plugin -->
<g id="node6" class="node">
<title>mini&#45;css&#45;extract&#45;plugin</title>
<g id="a_node6"><a xlink:title="mini&#45;css&#45;extract&#45;plugin">
<path fill="#ffffcc" stroke="red" d="M211.5,-489C211.5,-489 114.5,-489 114.5,-489 111.5,-489 108.5,-486 108.5,-483 108.5,-483 108.5,-477 108.5,-477 108.5,-474 111.5,-471 114.5,-471 114.5,-471 211.5,-471 211.5,-471 214.5,-471 217.5,-474 217.5,-477 217.5,-477 217.5,-483 217.5,-483 217.5,-486 214.5,-489 211.5,-489"/>
<text text-anchor="middle" x="163" y="-477.8" font-family="Helvetica,sans-Serif" font-size="9.00" fill="red">mini&#45;css&#45;extract&#45;plugin</text>
</a>
</g>
</g>
<!-- package.json -->
<g id="node7" class="node">
<title>package.json</title>
<g id="a_node7"><a xlink:href="package.json" xlink:title="package.json">
<path fill="#ccffcc" stroke="black" d="M80.5,-504C80.5,-504 21.5,-504 21.5,-504 18.5,-504 15.5,-501 15.5,-498 15.5,-498 15.5,-492 15.5,-492 15.5,-489 18.5,-486 21.5,-486 21.5,-486 80.5,-486 80.5,-486 83.5,-486 86.5,-489 86.5,-492 86.5,-492 86.5,-498 86.5,-498 86.5,-501 83.5,-504 80.5,-504"/>
<text text-anchor="middle" x="51" y="-492.8" font-family="Helvetica,sans-Serif" font-size="9.00">package.json</text>
</a>
</g>
</g>
<!-- path -->
<g id="node8" class="node">
<title>path</title>
<g id="a_node8"><a xlink:title="path">
<path fill="#ffffcc" stroke="grey" d="M184,-459C184,-459 142,-459 142,-459 139,-459 136,-456 136,-453 136,-453 136,-447 136,-447 136,-444 139,-441 142,-441 142,-441 184,-441 184,-441 187,-441 190,-444 190,-447 190,-447 190,-453 190,-453 190,-456 187,-459 184,-459"/>
<text text-anchor="middle" x="163" y="-447.8" font-family="Helvetica,sans-Serif" font-size="9.00" fill="grey">path</text>
</a>
</g>
</g>
<!-- src/configure.js -->
<g id="node9" class="node">
<title>src/configure.js</title>
<g id="a_node9"><a xlink:href="src/configure.js" xlink:title="configure.js">
<path fill="#ffffcc" stroke="black" d="M530.5,-286C530.5,-286 478.5,-286 478.5,-286 475.5,-286 472.5,-283 472.5,-280 472.5,-280 472.5,-274 472.5,-274 472.5,-271 475.5,-268 478.5,-268 478.5,-268 530.5,-268 530.5,-268 533.5,-268 536.5,-271 536.5,-274 536.5,-274 536.5,-280 536.5,-280 536.5,-283 533.5,-286 530.5,-286"/>
<text text-anchor="start" x="480.5" y="-274.8" font-family="Helvetica,sans-Serif" font-size="9.00">configure.js</text>
</a>
</g>
</g>
<!-- src/db/content&#45;management.js -->
<g id="node10" class="node">
<title>src/db/content&#45;management.js</title>
<g id="a_node10"><a xlink:href="src/db/content-management.js" xlink:title="content&#45;management.js">
<path fill="#ffffcc" stroke="black" d="M337.5,-210C337.5,-210 236.5,-210 236.5,-210 233.5,-210 230.5,-207 230.5,-204 230.5,-204 230.5,-198 230.5,-198 230.5,-195 233.5,-192 236.5,-192 236.5,-192 337.5,-192 337.5,-192 340.5,-192 343.5,-195 343.5,-198 343.5,-198 343.5,-204 343.5,-204 343.5,-207 340.5,-210 337.5,-210"/>
<text text-anchor="start" x="238.5" y="-198.8" font-family="Helvetica,sans-Serif" font-size="9.00">content&#45;management.js</text>
</a>
</g>
</g>
<!-- src/db/content&#45;management.js&#45;&gt;src/configure.js -->
<g id="edge1" class="edge">
<title>src/db/content&#45;management.js&#45;&gt;src/configure.js</title>
<path fill="none" stroke="#000000" stroke-width="2" stroke-opacity="0.200000" d="M343.93,-205.98C380.04,-211.01 427.07,-221.04 464.5,-241 474.09,-246.11 483.12,-254.15 490.07,-261.34"/>
<polygon fill="#000000" fill-opacity="0.200000" stroke="#000000" stroke-width="2" stroke-opacity="0.200000" points="488.16,-262.37 493.77,-265.36 491.25,-259.53 488.16,-262.37"/>
</g>
<!-- src/db/db.test.js -->
<g id="node11" class="node">
<title>src/db/db.test.js</title>
<g id="a_node11"><a xlink:href="src/db/db.test.js" xlink:title="db.test.js">
<path fill="#ffffcc" stroke="black" d="M184,-210C184,-210 142,-210 142,-210 139,-210 136,-207 136,-204 136,-204 136,-198 136,-198 136,-195 139,-192 142,-192 142,-192 184,-192 184,-192 187,-192 190,-195 190,-198 190,-198 190,-204 190,-204 190,-207 187,-210 184,-210"/>
<text text-anchor="start" x="144.5" y="-198.8" font-family="Helvetica,sans-Serif" font-size="9.00">db.test.js</text>
</a>
</g>
</g>
<!-- src/db/db.test.js&#45;&gt;fake&#45;indexeddb/auto -->
<g id="edge3" class="edge">
<title>src/db/db.test.js&#45;&gt;fake&#45;indexeddb/auto</title>
<path fill="none" stroke="#000000" stroke-width="2" stroke-opacity="0.200000" d="M190.37,-200.39C200.13,-198.82 210.5,-195.33 217.5,-188 238.44,-166.06 215.3,-147.25 230.5,-121 238.35,-107.43 251.48,-95.82 262.99,-87.41"/>
<polygon fill="#000000" fill-opacity="0.200000" stroke="#000000" stroke-width="2" stroke-opacity="0.200000" points="264.04,-89.24 267.77,-84.09 261.65,-85.79 264.04,-89.24"/>
</g>
<!-- src/db/db.test.js&#45;&gt;src/db/content&#45;management.js -->
<g id="edge2" class="edge">
<title>src/db/db.test.js&#45;&gt;src/db/content&#45;management.js</title>
<path fill="none" stroke="#000000" stroke-width="2" stroke-opacity="0.200000" d="M190.47,-201C199.65,-201 210.39,-201 221.28,-201"/>
<polygon fill="#000000" fill-opacity="0.200000" stroke="#000000" stroke-width="2" stroke-opacity="0.200000" points="221,-203.1 227,-201 221,-198.9 221,-203.1"/>
</g>
<!-- src/front&#45;end/abstract&#45;menu&#45;item.js -->
<g id="node12" class="node">
<title>src/front&#45;end/abstract&#45;menu&#45;item.js</title>
<g id="a_node12"><a xlink:href="src/front-end/abstract-menu-item.js" xlink:title="abstract&#45;menu&#45;item.js">
<path fill="#ffffcc" stroke="black" d="M333,-290C333,-290 241,-290 241,-290 238,-290 235,-287 235,-284 235,-284 235,-278 235,-278 235,-275 238,-272 241,-272 241,-272 333,-272 333,-272 336,-272 339,-275 339,-278 339,-278 339,-284 339,-284 339,-287 336,-290 333,-290"/>
<text text-anchor="start" x="243" y="-278.8" font-family="Helvetica,sans-Serif" font-size="9.00">abstract&#45;menu&#45;item.js</text>
</a>
</g>
</g>
<!-- src/front&#45;end/abstract&#45;menu&#45;item.js&#45;&gt;src/configure.js -->
<g id="edge4" class="edge">
<title>src/front&#45;end/abstract&#45;menu&#45;item.js&#45;&gt;src/configure.js</title>
<path fill="none" stroke="#000000" stroke-width="2" stroke-opacity="0.200000" d="M339.49,-274.55C346.21,-273.91 353.01,-273.36 359.5,-273 403.46,-270.55 416.45,-270.6 463.21,-273.03"/>
<polygon fill="#000000" fill-opacity="0.200000" stroke="#000000" stroke-width="2" stroke-opacity="0.200000" points="462.89,-275.12 469,-273.33 463.11,-270.92 462.89,-275.12"/>
</g>
<!-- src/front&#45;end/abstract&#45;observer.js -->
<g id="node13" class="node">
<title>src/front&#45;end/abstract&#45;observer.js</title>
<g id="a_node13"><a xlink:href="src/front-end/abstract-observer.js" xlink:title="abstract&#45;observer.js">
<path fill="#ffffcc" stroke="black" d="M450.5,-331C450.5,-331 365.5,-331 365.5,-331 362.5,-331 359.5,-328 359.5,-325 359.5,-325 359.5,-319 359.5,-319 359.5,-316 362.5,-313 365.5,-313 365.5,-313 450.5,-313 450.5,-313 453.5,-313 456.5,-316 456.5,-319 456.5,-319 456.5,-325 456.5,-325 456.5,-328 453.5,-331 450.5,-331"/>
<text text-anchor="start" x="367.5" y="-319.8" font-family="Helvetica,sans-Serif" font-size="9.00">abstract&#45;observer.js</text>
</a>
</g>
</g>
<!-- src/front&#45;end/abstract&#45;menu&#45;item.js&#45;&gt;src/front&#45;end/abstract&#45;observer.js -->
<g id="edge5" class="edge">
<title>src/front&#45;end/abstract&#45;menu&#45;item.js&#45;&gt;src/front&#45;end/abstract&#45;observer.js</title>
<path fill="none" stroke="#000000" stroke-width="2" stroke-opacity="0.200000" d="M315.3,-290.41C331.93,-296.14 353.36,-303.52 371.32,-309.71"/>
<polygon fill="#000000" fill-opacity="0.200000" stroke="#000000" stroke-width="2" stroke-opacity="0.200000" points="370.61,-311.68 376.96,-311.65 371.98,-307.71 370.61,-311.68"/>
</g>
<!-- src/front&#45;end/util.js -->
<g id="node14" class="node">
<title>src/front&#45;end/util.js</title>
<g id="a_node14"><a xlink:href="src/front-end/util.js" xlink:title="util.js">
<path fill="#ffffcc" stroke="black" d="M429,-297C429,-297 387,-297 387,-297 384,-297 381,-294 381,-291 381,-291 381,-285 381,-285 381,-282 384,-279 387,-279 387,-279 429,-279 429,-279 432,-279 435,-282 435,-285 435,-285 435,-291 435,-291 435,-294 432,-297 429,-297"/>
<text text-anchor="start" x="397" y="-285.8" font-family="Helvetica,sans-Serif" font-size="9.00">util.js</text>
</a>
</g>
</g>
<!-- src/front&#45;end/abstract&#45;menu&#45;item.js&#45;&gt;src/front&#45;end/util.js -->
<g id="edge6" class="edge">
<title>src/front&#45;end/abstract&#45;menu&#45;item.js&#45;&gt;src/front&#45;end/util.js</title>
<path fill="none" stroke="#000000" stroke-width="2" stroke-opacity="0.200000" d="M339.16,-284.01C350.27,-284.66 361.77,-285.34 372.08,-285.95"/>
<polygon fill="#000000" fill-opacity="0.200000" stroke="#000000" stroke-width="2" stroke-opacity="0.200000" points="371.66,-288.02 377.77,-286.28 371.9,-283.83 371.66,-288.02"/>
</g>
<!-- src/front&#45;end/util.js&#45;&gt;src/configure.js -->
<g id="edge22" class="edge">
<title>src/front&#45;end/util.js&#45;&gt;src/configure.js</title>
<path fill="none" stroke="#000000" stroke-width="2" stroke-opacity="0.200000" d="M435.32,-284.94C444.01,-283.92 453.89,-282.77 463.37,-281.67"/>
<polygon fill="#000000" fill-opacity="0.200000" stroke="#000000" stroke-width="2" stroke-opacity="0.200000" points="463.57,-283.76 469.29,-280.98 463.08,-279.59 463.57,-283.76"/>
</g>
<!-- src/front&#45;end/menu.js -->
<g id="node15" class="node">
<title>src/front&#45;end/menu.js</title>
<g id="a_node15"><a xlink:href="src/front-end/menu.js" xlink:title="menu.js">
<path fill="#ffffcc" stroke="black" d="M72,-309C72,-309 30,-309 30,-309 27,-309 24,-306 24,-303 24,-303 24,-297 24,-297 24,-294 27,-291 30,-291 30,-291 72,-291 72,-291 75,-291 78,-294 78,-297 78,-297 78,-303 78,-303 78,-306 75,-309 72,-309"/>
<text text-anchor="start" x="34.5" y="-297.8" font-family="Helvetica,sans-Serif" font-size="9.00">menu.js</text>
</a>
</g>
</g>
<!-- src/front&#45;end/menu.js&#45;&gt;src/configure.js -->
<g id="edge7" class="edge">
<title>src/front&#45;end/menu.js&#45;&gt;src/configure.js</title>
<path fill="none" stroke="#000000" stroke-width="2" stroke-opacity="0.200000" d="M64.78,-309.35C75.81,-316.94 92.44,-327.29 108.5,-333 257.75,-386.06 329.37,-432.65 464.5,-350 484.05,-338.04 494.38,-312.66 499.38,-295.21"/>
<polygon fill="#000000" fill-opacity="0.200000" stroke="#000000" stroke-width="2" stroke-opacity="0.200000" points="501.42,-295.74 500.89,-289.4 497.35,-294.69 501.42,-295.74"/>
</g>
<!-- src/front&#45;end/menu.js&#45;&gt;src/db/content&#45;management.js -->
<g id="edge8" class="edge">
<title>src/front&#45;end/menu.js&#45;&gt;src/db/content&#45;management.js</title>
<path fill="none" stroke="#000000" stroke-width="2" stroke-opacity="0.200000" d="M60.72,-290.58C71.14,-279.84 89.56,-262.43 108.5,-252 158.25,-224.62 175.71,-228.93 230.5,-214 232.15,-213.55 233.82,-213.1 235.52,-212.66"/>
<polygon fill="#000000" fill-opacity="0.200000" stroke="#000000" stroke-width="2" stroke-opacity="0.200000" points="235.87,-214.74 241.16,-211.22 234.83,-210.67 235.87,-214.74"/>
</g>
<!-- src/front&#45;end/menu.js&#45;&gt;src/front&#45;end/abstract&#45;menu&#45;item.js -->
<g id="edge9" class="edge">
<title>src/front&#45;end/menu.js&#45;&gt;src/front&#45;end/abstract&#45;menu&#45;item.js</title>
<path fill="none" stroke="#000000" stroke-width="2" stroke-opacity="0.200000" d="M78.39,-297.86C113.87,-294.98 178,-289.77 225.63,-285.9"/>
<polygon fill="#000000" fill-opacity="0.200000" stroke="#000000" stroke-width="2" stroke-opacity="0.200000" points="225.8,-288 231.61,-285.42 225.46,-283.81 225.8,-288"/>
</g>
<!-- src/front&#45;end/text&#45;editor.js -->
<g id="node16" class="node">
<title>src/front&#45;end/text&#45;editor.js</title>
<g id="a_node16"><a xlink:href="src/front-end/text-editor.js" xlink:title="text&#45;editor.js">
<path fill="#ffffcc" stroke="black" d="M314,-334C314,-334 260,-334 260,-334 257,-334 254,-331 254,-328 254,-328 254,-322 254,-322 254,-319 257,-316 260,-316 260,-316 314,-316 314,-316 317,-316 320,-319 320,-322 320,-322 320,-328 320,-328 320,-331 317,-334 314,-334"/>
<text text-anchor="start" x="262" y="-322.8" font-family="Helvetica,sans-Serif" font-size="9.00">text&#45;editor.js</text>
</a>
</g>
</g>
<!-- src/front&#45;end/menu.js&#45;&gt;src/front&#45;end/text&#45;editor.js -->
<g id="edge10" class="edge">
<title>src/front&#45;end/menu.js&#45;&gt;src/front&#45;end/text&#45;editor.js</title>
<path fill="none" stroke="#000000" stroke-width="2" stroke-opacity="0.200000" d="M67.67,-309.45C78.66,-315.51 93.94,-322.81 108.5,-326 154.43,-336.06 208.66,-333.77 244.98,-330.28"/>
<polygon fill="#000000" fill-opacity="0.200000" stroke="#000000" stroke-width="2" stroke-opacity="0.200000" points="245.05,-332.39 250.8,-329.69 244.62,-328.21 245.05,-332.39"/>
</g>
<!-- src/front&#45;end/topic&#45;factory.js -->
<g id="node17" class="node">
<title>src/front&#45;end/topic&#45;factory.js</title>
<g id="a_node17"><a xlink:href="src/front-end/topic-factory.js" xlink:title="topic&#45;factory.js">
<path fill="#ffffcc" stroke="black" d="M194.5,-320C194.5,-320 131.5,-320 131.5,-320 128.5,-320 125.5,-317 125.5,-314 125.5,-314 125.5,-308 125.5,-308 125.5,-305 128.5,-302 131.5,-302 131.5,-302 194.5,-302 194.5,-302 197.5,-302 200.5,-305 200.5,-308 200.5,-308 200.5,-314 200.5,-314 200.5,-317 197.5,-320 194.5,-320"/>
<text text-anchor="start" x="133.5" y="-308.8" font-family="Helvetica,sans-Serif" font-size="9.00">topic&#45;factory.js</text>
</a>
</g>
</g>
<!-- src/front&#45;end/menu.js&#45;&gt;src/front&#45;end/topic&#45;factory.js -->
<g id="edge11" class="edge">
<title>src/front&#45;end/menu.js&#45;&gt;src/front&#45;end/topic&#45;factory.js</title>
<path fill="none" stroke="#000000" stroke-width="2" stroke-opacity="0.200000" d="M78.35,-302.63C89.71,-303.77 103.33,-305.13 116.26,-306.43"/>
<polygon fill="#000000" fill-opacity="0.200000" stroke="#000000" stroke-width="2" stroke-opacity="0.200000" points="115.86,-308.5 122.04,-307 116.28,-304.32 115.86,-308.5"/>
</g>
<!-- src/front&#45;end/tweet&#45;factory.js -->
<g id="node18" class="node">
<title>src/front&#45;end/tweet&#45;factory.js</title>
<g id="a_node18"><a xlink:href="src/front-end/tweet-factory.js" xlink:title="tweet&#45;factory.js">
<path fill="#ffffcc" stroke="black" d="M195.5,-276C195.5,-276 130.5,-276 130.5,-276 127.5,-276 124.5,-273 124.5,-270 124.5,-270 124.5,-264 124.5,-264 124.5,-261 127.5,-258 130.5,-258 130.5,-258 195.5,-258 195.5,-258 198.5,-258 201.5,-261 201.5,-264 201.5,-264 201.5,-270 201.5,-270 201.5,-273 198.5,-276 195.5,-276"/>
<text text-anchor="start" x="132.5" y="-264.8" font-family="Helvetica,sans-Serif" font-size="9.00">tweet&#45;factory.js</text>
</a>
</g>
</g>
<!-- src/front&#45;end/menu.js&#45;&gt;src/front&#45;end/tweet&#45;factory.js -->
<g id="edge12" class="edge">
<title>src/front&#45;end/menu.js&#45;&gt;src/front&#45;end/tweet&#45;factory.js</title>
<path fill="none" stroke="#000000" stroke-width="2" stroke-opacity="0.200000" d="M78.35,-292.1C91.42,-288.17 107.48,-283.35 122.03,-278.99"/>
<polygon fill="#000000" fill-opacity="0.200000" stroke="#000000" stroke-width="2" stroke-opacity="0.200000" points="122.34,-281.09 127.49,-277.35 121.14,-277.07 122.34,-281.09"/>
</g>
<!-- src/front&#45;end/text&#45;editor.js&#45;&gt;src/front&#45;end/abstract&#45;observer.js -->
<g id="edge13" class="edge">
<title>src/front&#45;end/text&#45;editor.js&#45;&gt;src/front&#45;end/abstract&#45;observer.js</title>
<path fill="none" stroke="#000000" stroke-width="2" stroke-opacity="0.200000" d="M320.2,-324.19C329.47,-323.95 339.86,-323.69 350.14,-323.43"/>
<polygon fill="#000000" fill-opacity="0.200000" stroke="#000000" stroke-width="2" stroke-opacity="0.200000" points="350.15,-325.53 356.1,-323.28 350.04,-321.34 350.15,-325.53"/>
</g>
<!-- src/front&#45;end/topic&#45;factory.js&#45;&gt;src/configure.js -->
<g id="edge14" class="edge">
<title>src/front&#45;end/topic&#45;factory.js&#45;&gt;src/configure.js</title>
<path fill="none" stroke="#000000" stroke-width="2" stroke-opacity="0.200000" d="M200.97,-316.63C206.77,-318.44 212.49,-320.83 217.5,-324 225.25,-328.89 222.23,-336.06 230.5,-340 277.46,-362.35 419.13,-362.41 464.5,-337 480.84,-327.85 491.46,-308.68 497.43,-294.45"/>
<polygon fill="#000000" fill-opacity="0.200000" stroke="#000000" stroke-width="2" stroke-opacity="0.200000" points="499.25,-295.55 499.46,-289.2 495.34,-294.03 499.25,-295.55"/>
</g>
<!-- src/front&#45;end/topic&#45;factory.js&#45;&gt;src/db/content&#45;management.js -->
<g id="edge15" class="edge">
<title>src/front&#45;end/topic&#45;factory.js&#45;&gt;src/db/content&#45;management.js</title>
<path fill="none" stroke="#000000" stroke-width="2" stroke-opacity="0.200000" d="M190.02,-301.51C199.72,-296.88 210.16,-290.46 217.5,-282 228.38,-269.47 220.9,-260.53 230.5,-247 239.33,-234.56 252.33,-223.54 263.53,-215.41"/>
<polygon fill="#000000" fill-opacity="0.200000" stroke="#000000" stroke-width="2" stroke-opacity="0.200000" points="264.72,-217.14 268.44,-211.99 262.31,-213.69 264.72,-217.14"/>
</g>
<!-- src/front&#45;end/topic&#45;factory.js&#45;&gt;src/front&#45;end/abstract&#45;menu&#45;item.js -->
<g id="edge16" class="edge">
<title>src/front&#45;end/topic&#45;factory.js&#45;&gt;src/front&#45;end/abstract&#45;menu&#45;item.js</title>
<path fill="none" stroke="#000000" stroke-width="2" stroke-opacity="0.200000" d="M200.94,-301.92C212.9,-298.98 226.34,-295.67 238.94,-292.57"/>
<polygon fill="#000000" fill-opacity="0.200000" stroke="#000000" stroke-width="2" stroke-opacity="0.200000" points="239.23,-294.66 244.56,-291.19 238.23,-290.58 239.23,-294.66"/>
</g>
<!-- src/front&#45;end/topic&#45;factory.js&#45;&gt;src/front&#45;end/util.js -->
<g id="edge17" class="edge">
<title>src/front&#45;end/topic&#45;factory.js&#45;&gt;src/front&#45;end/util.js</title>
<path fill="none" stroke="#000000" stroke-width="2" stroke-opacity="0.200000" d="M200.71,-308.75C238.56,-306.27 299.25,-301.85 351.5,-296 358.02,-295.27 364.95,-294.37 371.63,-293.44"/>
<polygon fill="#000000" fill-opacity="0.200000" stroke="#000000" stroke-width="2" stroke-opacity="0.200000" points="371.87,-295.53 377.51,-292.6 371.27,-291.37 371.87,-295.53"/>
</g>
<!-- src/front&#45;end/tweet&#45;factory.js&#45;&gt;src/configure.js -->
<g id="edge18" class="edge">
<title>src/front&#45;end/tweet&#45;factory.js&#45;&gt;src/configure.js</title>
<path fill="none" stroke="#000000" stroke-width="2" stroke-opacity="0.200000" d="M201.82,-258.97C211.15,-257.32 221.15,-255.84 230.5,-255 331.41,-245.97 360.29,-250.07 463.2,-267.89"/>
<polygon fill="#000000" fill-opacity="0.200000" stroke="#000000" stroke-width="2" stroke-opacity="0.200000" points="462.81,-269.95 469.08,-268.91 463.52,-265.81 462.81,-269.95"/>
</g>
<!-- src/front&#45;end/tweet&#45;factory.js&#45;&gt;src/db/content&#45;management.js -->
<g id="edge19" class="edge">
<title>src/front&#45;end/tweet&#45;factory.js&#45;&gt;src/db/content&#45;management.js</title>
<path fill="none" stroke="#000000" stroke-width="2" stroke-opacity="0.200000" d="M189.5,-257.53C199.13,-253.02 209.65,-246.87 217.5,-239 224.69,-231.8 222.25,-224.87 229.32,-216.46"/>
<polygon fill="#000000" fill-opacity="0.200000" stroke="#000000" stroke-width="2" stroke-opacity="0.200000" points="230.72,-218.02 233.73,-212.42 227.89,-214.92 230.72,-218.02"/>
</g>
<!-- src/front&#45;end/tweet&#45;factory.js&#45;&gt;src/front&#45;end/abstract&#45;menu&#45;item.js -->
<g id="edge20" class="edge">
<title>src/front&#45;end/tweet&#45;factory.js&#45;&gt;src/front&#45;end/abstract&#45;menu&#45;item.js</title>
<path fill="none" stroke="#000000" stroke-width="2" stroke-opacity="0.200000" d="M201.93,-271.35C209.54,-272.23 217.7,-273.16 225.84,-274.1"/>
<polygon fill="#000000" fill-opacity="0.200000" stroke="#000000" stroke-width="2" stroke-opacity="0.200000" points="225.43,-276.16 231.63,-274.76 225.91,-271.99 225.43,-276.16"/>
</g>
<!-- src/front&#45;end/tweet&#45;factory.js&#45;&gt;src/front&#45;end/util.js -->
<g id="edge21" class="edge">
<title>src/front&#45;end/tweet&#45;factory.js&#45;&gt;src/front&#45;end/util.js</title>
<path fill="none" stroke="#000000" stroke-width="2" stroke-opacity="0.200000" d="M201.84,-263.15C248.77,-259 325.74,-254.43 351.5,-266 356.38,-268.19 354.95,-272.18 359.5,-275 363.4,-277.42 367.74,-279.39 372.18,-281.01"/>
<polygon fill="#000000" fill-opacity="0.200000" stroke="#000000" stroke-width="2" stroke-opacity="0.200000" points="371.5,-282.99 377.85,-282.78 372.75,-278.98 371.5,-282.99"/>
</g>
<!-- src/index.js -->
<g id="node19" class="node">
<title>src/index.js</title>
<g id="a_node19"><a xlink:href="src/index.js" xlink:title="index.js">
<path fill="#ffffcc" stroke="black" d="M184,-146C184,-146 142,-146 142,-146 139,-146 136,-143 136,-140 136,-140 136,-134 136,-134 136,-131 139,-128 142,-128 142,-128 184,-128 184,-128 187,-128 190,-131 190,-134 190,-134 190,-140 190,-140 190,-143 187,-146 184,-146"/>
<text text-anchor="start" x="147" y="-134.8" font-family="Helvetica,sans-Serif" font-size="9.00">index.js</text>
</a>
</g>
</g>
<!-- src/index.js&#45;&gt;bootstrap -->
<g id="edge25" class="edge">
<title>src/index.js&#45;&gt;bootstrap</title>
<path fill="none" stroke="#000000" stroke-width="2" stroke-opacity="0.200000" d="M168.77,-127.51C178.1,-109.95 200.51,-72.4 230.5,-53 236.48,-49.13 243.47,-46.33 250.43,-44.3"/>
<polygon fill="#000000" fill-opacity="0.200000" stroke="#000000" stroke-width="2" stroke-opacity="0.200000" points="250.9,-46.35 256.21,-42.86 249.88,-42.27 250.9,-46.35"/>
</g>
<!-- src/index.js&#45;&gt;dompurify -->
<g id="edge26" class="edge">
<title>src/index.js&#45;&gt;dompurify</title>
<path fill="none" stroke="#000000" stroke-width="2" stroke-opacity="0.200000" d="M166.75,-127.76C173.67,-106.12 193.93,-51.88 230.5,-24 236.08,-19.74 242.78,-16.7 249.57,-14.51"/>
<polygon fill="#000000" fill-opacity="0.200000" stroke="#000000" stroke-width="2" stroke-opacity="0.200000" points="249.97,-16.58 255.21,-12.98 248.87,-12.52 249.97,-16.58"/>
</g>
<!-- src/index.js&#45;&gt;src/db/content&#45;management.js -->
<g id="edge23" class="edge">
<title>src/index.js&#45;&gt;src/db/content&#45;management.js</title>
<path fill="none" stroke="#000000" stroke-width="2" stroke-opacity="0.200000" d="M177.32,-146.45C190.44,-155.52 211.27,-169.22 230.5,-179 237.07,-182.34 244.28,-185.53 251.26,-188.38"/>
<polygon fill="#000000" fill-opacity="0.200000" stroke="#000000" stroke-width="2" stroke-opacity="0.200000" points="250.14,-190.19 256.49,-190.46 251.69,-186.29 250.14,-190.19"/>
</g>
<!-- src/scss/main.scss -->
<g id="node20" class="node">
<title>src/scss/main.scss</title>
<g id="a_node20"><a xlink:href="src/scss/main.scss" xlink:title="main.scss">
<path fill="#ffffcc" stroke="black" d="M309.5,-150C309.5,-150 264.5,-150 264.5,-150 261.5,-150 258.5,-147 258.5,-144 258.5,-144 258.5,-138 258.5,-138 258.5,-135 261.5,-132 264.5,-132 264.5,-132 309.5,-132 309.5,-132 312.5,-132 315.5,-135 315.5,-138 315.5,-138 315.5,-144 315.5,-144 315.5,-147 312.5,-150 309.5,-150"/>
<text text-anchor="start" x="266.5" y="-138.8" font-family="Helvetica,sans-Serif" font-size="9.00">main.scss</text>
</a>
</g>
</g>
<!-- src/index.js&#45;&gt;src/scss/main.scss -->
<g id="edge24" class="edge">
<title>src/index.js&#45;&gt;src/scss/main.scss</title>
<path fill="none" stroke="#000000" stroke-width="2" stroke-opacity="0.200000" d="M190.47,-137.87C207.7,-138.43 230.4,-139.18 249.35,-139.8"/>
<polygon fill="#000000" fill-opacity="0.200000" stroke="#000000" stroke-width="2" stroke-opacity="0.200000" points="249.22,-141.9 255.28,-139.99 249.36,-137.7 249.22,-141.9"/>
</g>
<!-- webpack.config.js -->
<g id="node21" class="node">
<title>webpack.config.js</title>
<g id="a_node21"><a xlink:href="webpack.config.js" xlink:title="webpack.config.js">
<path fill="#ffffcc" stroke="black" d="M89.5,-474C89.5,-474 12.5,-474 12.5,-474 9.5,-474 6.5,-471 6.5,-468 6.5,-468 6.5,-462 6.5,-462 6.5,-459 9.5,-456 12.5,-456 12.5,-456 89.5,-456 89.5,-456 92.5,-456 95.5,-459 95.5,-462 95.5,-462 95.5,-468 95.5,-468 95.5,-471 92.5,-474 89.5,-474"/>
<text text-anchor="middle" x="51" y="-462.8" font-family="Helvetica,sans-Serif" font-size="9.00">webpack.config.js</text>
</a>
</g>
</g>
<!-- webpack.config.js&#45;&gt;mini&#45;css&#45;extract&#45;plugin -->
<g id="edge27" class="edge">
<title>webpack.config.js&#45;&gt;mini&#45;css&#45;extract&#45;plugin</title>
<path fill="none" stroke="#000000" stroke-width="2" stroke-opacity="0.200000" d="M95.79,-470.97C96.94,-471.13 98.09,-471.28 99.25,-471.44"/>
<polygon fill="#000000" fill-opacity="0.200000" stroke="#000000" stroke-width="2" stroke-opacity="0.200000" points="98.95,-473.52 105.18,-472.25 99.52,-469.36 98.95,-473.52"/>
</g>
<!-- webpack.config.js&#45;&gt;path -->
<g id="edge28" class="edge">
<title>webpack.config.js&#45;&gt;path</title>
<path fill="none" stroke="#000000" stroke-dasharray="5,2" stroke-opacity="0.200000" d="M95.79,-459.03C106.69,-457.54 118.2,-455.97 128.51,-454.57"/>
<polygon fill="#000000" fill-opacity="0.200000" stroke="#000000" stroke-opacity="0.200000" points="128.62,-456.67 134.28,-453.78 128.05,-452.51 128.62,-456.67"/>
</g>
</g>
</svg>
